<?xml version="1.0" encoding="UTF-8"?>
<svg width="126px" height="158px" viewBox="0 0 126 158" version="1.1" xmlns="http://www.w3.org/2000/svg" xmlns:xlink="http://www.w3.org/1999/xlink">
    <!-- Generator: Sketch 46.2 (44496) - http://www.bohemiancoding.com/sketch -->
    <title>flourish-home-hero</title>
    <desc>Created with Sketch.</desc>
    <defs></defs>
    <g id="Page-1" stroke="none" stroke-width="1" fill="none" fill-rule="evenodd">
        <g id="flourish-home-hero" fill-rule="nonzero" fill="#9BC73C">
            <path d="M32,141.8 L0,125.8 L32,109.8 L32,141.8 Z M1.1,125.8 L31.5,141 L31.5,110.6 L1.1,125.8 Z" id="Shape"></path>
            <path d="M32,110.6 L0,94.6 L32,78.6 L32,110.6 Z M1.1,94.6 L31.5,109.8 L31.5,79.4 L1.1,94.6 Z" id="Shape"></path>
            <path d="M32,79.4 L0,63.4 L32,47.4 L32,79.4 Z M1.1,63.4 L31.5,78.6 L31.5,48.2 L1.1,63.4 Z" id="Shape"></path>
            <path d="M32,48.2 L0,32.2 L32,16.2 L32,48.2 Z M1.1,32.2 L31.5,47.4 L31.5,17 L1.1,32.2 Z" id="Shape"></path>
            <path d="M0.3,63.8 L0.3,31.8 L32.3,47.8 L0.3,63.8 Z M0.8,32.6 L0.8,63 L31.2,47.8 L0.8,32.6 Z" id="Shape"></path>
            <path d="M0.3,95 L0.3,63 L32.3,79 L0.3,95 Z M0.8,63.8 L0.8,94.2 L31.2,79 L0.8,63.8 Z" id="Shape"></path>
            <path d="M0.3,126.2 L0.3,94.2 L32.3,110.2 L0.3,126.2 Z M0.8,95 L0.8,125.4 L31.2,110.2 L0.8,95 Z" id="Shape"></path>
            <path d="M63.2,157.4 L31.2,141.4 L63.2,125.4 L63.2,157.4 Z M32.3,141.4 L62.7,156.6 L62.7,126.2 L32.3,141.4 Z" id="Shape"></path>
            <path d="M63.2,126.2 L31.2,110.2 L63.2,94.2 L63.2,126.2 Z M32.3,110.2 L62.7,125.4 L62.7,95 L32.3,110.2 Z" id="Shape"></path>
            <path d="M63.2,95 L31.2,79 L63.2,63 L63.2,95 Z M32.3,79 L62.7,94.2 L62.7,63.8 L32.3,79 Z" id="Shape"></path>
            <path d="M63.2,63.8 L31.2,47.8 L63.2,31.8 L63.2,63.8 Z M32.3,47.8 L62.7,63 L62.7,32.6 L32.3,47.8 Z" id="Shape"></path>
            <path d="M63.2,32.6 L31.2,16.6 L63.2,0.6 L63.2,32.6 Z M32.3,16.6 L62.7,31.8 L62.7,1.4 L32.3,16.6 Z" id="Shape"></path>
            <path d="M31.5,48.2 L31.5,16.2 L63.5,32.2 L31.5,48.2 Z M32,17 L32,47.4 L62.4,32.2 L32,17 Z" id="Shape"></path>
            <path d="M31.5,79.4 L31.5,47.4 L63.5,63.4 L31.5,79.4 Z M32,48.2 L32,78.6 L62.4,63.4 L32,48.2 Z" id="Shape"></path>
            <path d="M31.5,110.6 L31.5,78.6 L63.5,94.6 L31.5,110.6 Z M32,79.4 L32,109.8 L62.4,94.6 L32,79.4 Z" id="Shape"></path>
            <path d="M31.5,141.8 L31.5,109.8 L63.5,125.8 L31.5,141.8 Z M32,110.6 L32,141 L62.4,125.8 L32,110.6 Z" id="Shape"></path>
            <path d="M94.4,141.8 L62.4,125.8 L94.4,109.8 L94.4,141.8 Z M63.5,125.8 L93.9,141 L93.9,110.6 L63.5,125.8 Z" id="Shape"></path>
            <path d="M94.4,110.6 L62.4,94.6 L94.4,78.6 L94.4,110.6 Z M63.5,94.6 L93.9,109.8 L93.9,79.4 L63.5,94.6 Z" id="Shape"></path>
            <path d="M94.4,79.4 L62.4,63.4 L94.4,47.4 L94.4,79.4 Z M63.5,63.4 L93.9,78.6 L93.9,48.2 L63.5,63.4 Z" id="Shape"></path>
            <path d="M94.4,48.2 L62.4,32.2 L94.4,16.2 L94.4,48.2 Z M63.5,32.2 L93.9,47.4 L93.9,17 L63.5,32.2 Z" id="Shape"></path>
            <path d="M62.7,32.6 L62.7,0.6 L94.7,16.6 L62.7,32.6 Z M63.2,1.4 L63.2,31.8 L93.6,16.6 L63.2,1.4 Z" id="Shape"></path>
            <path d="M62.7,63.8 L62.7,31.8 L94.7,47.8 L62.7,63.8 Z M63.2,32.6 L63.2,63 L93.6,47.8 L63.2,32.6 Z" id="Shape"></path>
            <path d="M62.7,95 L62.7,63 L94.7,79 L62.7,95 Z M63.2,63.8 L63.2,94.2 L93.6,79 L63.2,63.8 Z" id="Shape"></path>
            <path d="M62.7,126.2 L62.7,94.2 L94.7,110.2 L62.7,126.2 Z M63.2,95 L63.2,125.4 L93.6,110.2 L63.2,95 Z" id="Shape"></path>
            <path d="M62.7,157.4 L62.7,125.4 L94.7,141.4 L62.7,157.4 Z M63.2,126.2 L63.2,156.6 L93.6,141.4 L63.2,126.2 Z" id="Shape"></path>
            <path d="M125.6,126.2 L93.6,110.2 L125.6,94.2 L125.6,126.2 Z M94.7,110.2 L125.1,125.4 L125.1,95 L94.7,110.2 Z" id="Shape"></path>
            <path d="M125.6,95 L93.6,79 L125.6,63 L125.6,95 Z M94.7,79 L125.1,94.2 L125.1,63.8 L94.7,79 Z" id="Shape"></path>
            <path d="M125.6,63.8 L93.6,47.8 L125.6,31.8 L125.6,63.8 Z M94.7,47.8 L125.1,63 L125.1,32.6 L94.7,47.8 Z" id="Shape"></path>
            <path d="M93.9,48.2 L93.9,16.2 L125.9,32.2 L93.9,48.2 Z M94.4,17 L94.4,47.4 L124.8,32.2 L94.4,17 Z" id="Shape"></path>
            <path d="M93.9,79.4 L93.9,47.4 L125.9,63.4 L93.9,79.4 Z M94.4,48.2 L94.4,78.6 L124.8,63.4 L94.4,48.2 Z" id="Shape"></path>
            <path d="M93.9,110.6 L93.9,78.6 L125.9,94.6 L93.9,110.6 Z M94.4,79.4 L94.4,109.8 L124.8,94.6 L94.4,79.4 Z" id="Shape"></path>
            <path d="M93.9,141.8 L93.9,109.8 L125.9,125.8 L93.9,141.8 Z M94.4,110.6 L94.4,141 L124.8,125.8 L94.4,110.6 Z" id="Shape"></path>
        </g>
    </g>
</svg>